<svg width="232" height="105" viewBox="0 0 232 105" fill="none" xmlns="http://www.w3.org/2000/svg">
<g filter="url(#filter0_d)">
<rect x="27" y="21" width="172" height="44.3077" rx="22.1538" fill="url(#paint0_linear)"/>
</g>
<path d="M54.173 47.3293C53.9677 47.5053 53.645 47.6593 53.205 47.7913C52.7797 47.9233 52.3103 47.9893 51.797 47.9893C51.181 47.9893 50.653 47.9013 50.213 47.7253C49.773 47.5346 49.4723 47.2779 49.311 46.9553C49.1497 46.6179 48.9517 46.1853 48.717 45.6573C48.4823 45.1146 48.233 44.5133 47.969 43.8533C47.7197 43.1933 47.4557 42.4966 47.177 41.7633C46.913 41.0153 46.6563 40.2599 46.407 39.4973C46.1577 38.7346 45.923 37.9866 45.703 37.2533C45.483 36.5199 45.2923 35.8306 45.131 35.1853C45.3363 34.9799 45.6297 34.7966 46.011 34.6353C46.407 34.4593 46.825 34.3713 47.265 34.3713C47.8077 34.3713 48.2477 34.4886 48.585 34.7233C48.937 34.9433 49.1937 35.3613 49.355 35.9773C49.751 37.4146 50.147 38.7933 50.543 40.1133C50.9537 41.4186 51.379 42.7826 51.819 44.2053H51.951C52.347 42.8266 52.7503 41.3233 53.161 39.6953C53.5863 38.0673 53.9897 36.4466 54.371 34.8333C54.635 34.7013 54.9137 34.5913 55.207 34.5033C55.515 34.4153 55.8597 34.3713 56.241 34.3713C56.7837 34.3713 57.2457 34.4959 57.627 34.7453C58.0083 34.9799 58.199 35.3759 58.199 35.9333C58.199 36.2559 58.1183 36.7253 57.957 37.3413C57.8103 37.9573 57.6123 38.6539 57.363 39.4313C57.1283 40.1939 56.857 40.9933 56.549 41.8293C56.2557 42.6653 55.955 43.4573 55.647 44.2053C55.3537 44.9386 55.075 45.5913 54.811 46.1633C54.547 46.7206 54.3343 47.1093 54.173 47.3293ZM71.7199 42.4233C71.7199 43.3326 71.5806 44.1466 71.3019 44.8653C71.0232 45.5693 70.6272 46.1633 70.1139 46.6473C69.6152 47.1313 69.0139 47.4979 68.3099 47.7473C67.6059 47.9966 66.8212 48.1213 65.9559 48.1213C65.0906 48.1213 64.3059 47.9893 63.6019 47.7253C62.8979 47.4613 62.2892 47.0873 61.7759 46.6033C61.2772 46.1046 60.8886 45.5033 60.6099 44.7993C60.3312 44.0953 60.1919 43.3033 60.1919 42.4233C60.1919 41.5579 60.3312 40.7733 60.6099 40.0693C60.8886 39.3653 61.2772 38.7713 61.7759 38.2873C62.2892 37.7886 62.8979 37.4073 63.6019 37.1433C64.3059 36.8793 65.0906 36.7473 65.9559 36.7473C66.8212 36.7473 67.6059 36.8866 68.3099 37.1653C69.0139 37.4293 69.6152 37.8106 70.1139 38.3093C70.6272 38.7933 71.0232 39.3873 71.3019 40.0913C71.5806 40.7953 71.7199 41.5726 71.7199 42.4233ZM64.0199 42.4233C64.0199 43.3179 64.1886 44.0073 64.5259 44.4913C64.8779 44.9606 65.3619 45.1953 65.9779 45.1953C66.5939 45.1953 67.0632 44.9533 67.3859 44.4693C67.7232 43.9853 67.8919 43.3033 67.8919 42.4233C67.8919 41.5433 67.7232 40.8686 67.3859 40.3993C67.0486 39.9153 66.5719 39.6733 65.9559 39.6733C65.3399 39.6733 64.8632 39.9153 64.5259 40.3993C64.1886 40.8686 64.0199 41.5433 64.0199 42.4233ZM74.9965 34.1073C74.9965 33.5499 75.1799 33.0806 75.5465 32.6993C75.9279 32.3179 76.4265 32.1273 77.0425 32.1273C77.6585 32.1273 78.1499 32.3179 78.5165 32.6993C78.8979 33.0806 79.0885 33.5499 79.0885 34.1073C79.0885 34.6646 78.8979 35.1339 78.5165 35.5153C78.1499 35.8966 77.6585 36.0873 77.0425 36.0873C76.4265 36.0873 75.9279 35.8966 75.5465 35.5153C75.1799 35.1339 74.9965 34.6646 74.9965 34.1073ZM78.9125 47.7473C78.7512 47.7766 78.5092 47.8133 78.1865 47.8573C77.8785 47.9159 77.5632 47.9453 77.2405 47.9453C76.9179 47.9453 76.6245 47.9233 76.3605 47.8793C76.1112 47.8353 75.8985 47.7473 75.7225 47.6153C75.5465 47.4833 75.4072 47.3073 75.3045 47.0873C75.2165 46.8526 75.1725 46.5519 75.1725 46.1853V37.2313C75.3339 37.2019 75.5685 37.1653 75.8765 37.1213C76.1992 37.0626 76.5219 37.0333 76.8445 37.0333C77.1672 37.0333 77.4532 37.0553 77.7025 37.0993C77.9665 37.1433 78.1865 37.2313 78.3625 37.3633C78.5385 37.4953 78.6705 37.6786 78.7585 37.9133C78.8612 38.1333 78.9125 38.4266 78.9125 38.7933V47.7473ZM86.5735 47.7473C86.4268 47.7913 86.1922 47.8353 85.8695 47.8793C85.5615 47.9233 85.2388 47.9453 84.9015 47.9453C84.5788 47.9453 84.2855 47.9233 84.0215 47.8793C83.7722 47.8353 83.5595 47.7473 83.3835 47.6153C83.2075 47.4833 83.0682 47.3073 82.9655 47.0873C82.8775 46.8526 82.8335 46.5519 82.8335 46.1853V39.5853C82.8335 39.2479 82.8922 38.9619 83.0095 38.7273C83.1415 38.4779 83.3248 38.2579 83.5595 38.0673C83.7942 37.8766 84.0802 37.7079 84.4175 37.5613C84.7695 37.3999 85.1435 37.2606 85.5395 37.1433C85.9355 37.0259 86.3462 36.9379 86.7715 36.8793C87.1968 36.8059 87.6222 36.7693 88.0475 36.7693C88.7515 36.7693 89.3088 36.9086 89.7195 37.1873C90.1302 37.4513 90.3355 37.8913 90.3355 38.5073C90.3355 38.7126 90.3062 38.9179 90.2475 39.1233C90.1888 39.3139 90.1155 39.4899 90.0275 39.6513C89.7195 39.6513 89.4042 39.6659 89.0815 39.6953C88.7588 39.7246 88.4435 39.7686 88.1355 39.8273C87.8275 39.8859 87.5342 39.9519 87.2555 40.0253C86.9915 40.0839 86.7642 40.1573 86.5735 40.2453V47.7473ZM104.489 36.7473C105.09 36.7473 105.677 36.8353 106.249 37.0113C106.835 37.1726 107.341 37.4219 107.767 37.7593C108.207 37.4659 108.698 37.2239 109.241 37.0333C109.798 36.8426 110.465 36.7473 111.243 36.7473C111.8 36.7473 112.343 36.8206 112.871 36.9673C113.413 37.1139 113.89 37.3486 114.301 37.6713C114.726 37.9793 115.063 38.3973 115.313 38.9253C115.562 39.4386 115.687 40.0693 115.687 40.8173V47.7473C115.54 47.7913 115.305 47.8353 114.983 47.8793C114.675 47.9233 114.352 47.9453 114.015 47.9453C113.692 47.9453 113.399 47.9233 113.135 47.8793C112.885 47.8353 112.673 47.7473 112.497 47.6153C112.321 47.4833 112.181 47.3073 112.079 47.0873C111.991 46.8526 111.947 46.5519 111.947 46.1853V40.9273C111.947 40.4873 111.822 40.1719 111.573 39.9813C111.323 39.7759 110.986 39.6733 110.561 39.6733C110.355 39.6733 110.135 39.7246 109.901 39.8273C109.666 39.9153 109.49 40.0106 109.373 40.1133C109.387 40.1719 109.395 40.2306 109.395 40.2893C109.395 40.3333 109.395 40.3773 109.395 40.4213V47.7473C109.233 47.7913 108.991 47.8353 108.669 47.8793C108.361 47.9233 108.045 47.9453 107.723 47.9453C107.4 47.9453 107.107 47.9233 106.843 47.8793C106.593 47.8353 106.381 47.7473 106.205 47.6153C106.029 47.4833 105.889 47.3073 105.787 47.0873C105.699 46.8526 105.655 46.5519 105.655 46.1853V40.9273C105.655 40.4873 105.515 40.1719 105.237 39.9813C104.973 39.7759 104.65 39.6733 104.269 39.6733C104.005 39.6733 103.777 39.7173 103.587 39.8053C103.396 39.8786 103.235 39.9519 103.103 40.0253V47.7473C102.956 47.7913 102.721 47.8353 102.399 47.8793C102.091 47.9233 101.768 47.9453 101.431 47.9453C101.108 47.9453 100.815 47.9233 100.551 47.8793C100.301 47.8353 100.089 47.7473 99.9127 47.6153C99.7367 47.4833 99.5974 47.3073 99.4947 47.0873C99.4067 46.8526 99.3627 46.5519 99.3627 46.1853V39.5413C99.3627 39.1453 99.4434 38.8299 99.6047 38.5953C99.7807 38.3606 100.015 38.1406 100.309 37.9353C100.807 37.5833 101.423 37.2973 102.157 37.0773C102.905 36.8573 103.682 36.7473 104.489 36.7473ZM130.574 42.4233C130.574 43.3326 130.435 44.1466 130.156 44.8653C129.878 45.5693 129.482 46.1633 128.968 46.6473C128.47 47.1313 127.868 47.4979 127.164 47.7473C126.46 47.9966 125.676 48.1213 124.81 48.1213C123.945 48.1213 123.16 47.9893 122.456 47.7253C121.752 47.4613 121.144 47.0873 120.63 46.6033C120.132 46.1046 119.743 45.5033 119.464 44.7993C119.186 44.0953 119.046 43.3033 119.046 42.4233C119.046 41.5579 119.186 40.7733 119.464 40.0693C119.743 39.3653 120.132 38.7713 120.63 38.2873C121.144 37.7886 121.752 37.4073 122.456 37.1433C123.16 36.8793 123.945 36.7473 124.81 36.7473C125.676 36.7473 126.46 36.8866 127.164 37.1653C127.868 37.4293 128.47 37.8106 128.968 38.3093C129.482 38.7933 129.878 39.3873 130.156 40.0913C130.435 40.7953 130.574 41.5726 130.574 42.4233ZM122.874 42.4233C122.874 43.3179 123.043 44.0073 123.38 44.4913C123.732 44.9606 124.216 45.1953 124.832 45.1953C125.448 45.1953 125.918 44.9533 126.24 44.4693C126.578 43.9853 126.746 43.3033 126.746 42.4233C126.746 41.5433 126.578 40.8686 126.24 40.3993C125.903 39.9153 125.426 39.6733 124.81 39.6733C124.194 39.6733 123.718 39.9153 123.38 40.3993C123.043 40.8686 122.874 41.5433 122.874 42.4233ZM140.715 40.9933C140.715 40.5386 140.583 40.2086 140.319 40.0033C140.069 39.7833 139.725 39.6733 139.285 39.6733C138.991 39.6733 138.698 39.7099 138.405 39.7833C138.126 39.8566 137.884 39.9666 137.679 40.1133V47.7473C137.532 47.7913 137.297 47.8353 136.975 47.8793C136.667 47.9233 136.344 47.9453 136.007 47.9453C135.684 47.9453 135.391 47.9233 135.127 47.8793C134.877 47.8353 134.665 47.7473 134.489 47.6153C134.313 47.4833 134.173 47.3073 134.071 47.0873C133.983 46.8526 133.939 46.5519 133.939 46.1853V39.5853C133.939 39.1893 134.019 38.8666 134.181 38.6173C134.357 38.3679 134.591 38.1406 134.885 37.9353C135.383 37.5833 136.007 37.2973 136.755 37.0773C137.517 36.8573 138.361 36.7473 139.285 36.7473C140.942 36.7473 142.218 37.1139 143.113 37.8473C144.007 38.5659 144.455 39.5706 144.455 40.8613V47.7473C144.308 47.7913 144.073 47.8353 143.751 47.8793C143.443 47.9233 143.12 47.9453 142.783 47.9453C142.46 47.9453 142.167 47.9233 141.903 47.8793C141.653 47.8353 141.441 47.7473 141.265 47.6153C141.089 47.4833 140.949 47.3073 140.847 47.0873C140.759 46.8526 140.715 46.5519 140.715 46.1853V40.9933ZM161.333 37.1213C160.204 37.1213 159.339 37.4659 158.737 38.1553C158.136 38.8446 157.835 39.8199 157.835 41.0813C157.835 42.3573 158.165 43.3399 158.825 44.0293C159.5 44.7186 160.402 45.0633 161.531 45.0633C162.133 45.0633 162.639 44.9826 163.049 44.8213C163.475 44.6599 163.878 44.4766 164.259 44.2713C164.509 44.4766 164.699 44.7259 164.831 45.0193C164.978 45.2979 165.051 45.6279 165.051 46.0093C165.051 46.6106 164.714 47.1239 164.039 47.5493C163.379 47.9599 162.367 48.1653 161.003 48.1653C160.021 48.1653 159.097 48.0259 158.231 47.7473C157.366 47.4686 156.611 47.0433 155.965 46.4713C155.32 45.8846 154.807 45.1513 154.425 44.2713C154.059 43.3766 153.875 42.3133 153.875 41.0813C153.875 39.9373 154.051 38.9326 154.403 38.0673C154.77 37.1873 155.261 36.4466 155.877 35.8453C156.508 35.2439 157.241 34.7893 158.077 34.4813C158.913 34.1733 159.808 34.0193 160.761 34.0193C162.111 34.0193 163.152 34.2393 163.885 34.6793C164.633 35.1193 165.007 35.6839 165.007 36.3733C165.007 36.7546 164.912 37.0846 164.721 37.3633C164.531 37.6419 164.311 37.8619 164.061 38.0233C163.68 37.7739 163.269 37.5613 162.829 37.3853C162.404 37.2093 161.905 37.1213 161.333 37.1213ZM176.716 47.3293C176.51 47.5053 176.188 47.6593 175.748 47.7913C175.322 47.9233 174.853 47.9893 174.34 47.9893C173.724 47.9893 173.196 47.9013 172.756 47.7253C172.316 47.5346 172.015 47.2779 171.854 46.9553C171.692 46.6179 171.494 46.1853 171.26 45.6573C171.025 45.1146 170.776 44.5133 170.512 43.8533C170.262 43.1933 169.998 42.4966 169.72 41.7633C169.456 41.0153 169.199 40.2599 168.95 39.4973C168.7 38.7346 168.466 37.9866 168.246 37.2533C168.026 36.5199 167.835 35.8306 167.674 35.1853C167.879 34.9799 168.172 34.7966 168.554 34.6353C168.95 34.4593 169.368 34.3713 169.808 34.3713C170.35 34.3713 170.79 34.4886 171.128 34.7233C171.48 34.9433 171.736 35.3613 171.898 35.9773C172.294 37.4146 172.69 38.7933 173.086 40.1133C173.496 41.4186 173.922 42.7826 174.362 44.2053H174.494C174.89 42.8266 175.293 41.3233 175.704 39.6953C176.129 38.0673 176.532 36.4466 176.914 34.8333C177.178 34.7013 177.456 34.5913 177.75 34.5033C178.058 34.4153 178.402 34.3713 178.784 34.3713C179.326 34.3713 179.788 34.4959 180.17 34.7453C180.551 34.9799 180.742 35.3759 180.742 35.9333C180.742 36.2559 180.661 36.7253 180.5 37.3413C180.353 37.9573 180.155 38.6539 179.906 39.4313C179.671 40.1939 179.4 40.9933 179.092 41.8293C178.798 42.6653 178.498 43.4573 178.19 44.2053C177.896 44.9386 177.618 45.5913 177.354 46.1633C177.09 46.7206 176.877 47.1093 176.716 47.3293Z" fill="white"/>
<defs>
<filter id="filter0_d" x="7" y="5" width="212" height="84.3077" filterUnits="userSpaceOnUse" color-interpolation-filters="sRGB">
<feFlood flood-opacity="0" result="BackgroundImageFix"/>
<feColorMatrix in="SourceAlpha" type="matrix" values="0 0 0 0 0 0 0 0 0 0 0 0 0 0 0 0 0 0 127 0"/>
<feOffset dy="4"/>
<feGaussianBlur stdDeviation="10"/>
<feColorMatrix type="matrix" values="0 0 0 0 0.870588 0 0 0 0 0.196078 0 0 0 0 0.196078 0 0 0 0.8 0"/>
<feBlend mode="normal" in2="BackgroundImageFix" result="effect1_dropShadow"/>
<feBlend mode="normal" in="SourceGraphic" in2="effect1_dropShadow" result="shape"/>
</filter>
<linearGradient id="paint0_linear" x1="27" y1="25.7179" x2="201.119" y2="71.1328" gradientUnits="userSpaceOnUse">
<stop offset="0.196696" stop-color="#D3195C" stop-opacity="0.68"/>
<stop offset="0.420434" stop-color="#DE3232" stop-opacity="0.75"/>
<stop offset="0.685154" stop-color="#DE3232" stop-opacity="0.7"/>
<stop offset="1" stop-color="#F01E1E" stop-opacity="0.95"/>
</linearGradient>
</defs>
</svg>
